<svg width="350" height="80" viewBox="0 0 350 80" fill="none" xmlns="http://www.w3.org/2000/svg">
<path d="M115.445 21.9453H112.547V20.1172H115.445C115.893 20.1172 116.258 20.0443 116.539 19.8984C116.82 19.7474 117.026 19.5391 117.156 19.2734C117.286 19.0078 117.352 18.7083 117.352 18.375C117.352 18.0365 117.286 17.7214 117.156 17.4297C117.026 17.138 116.82 16.9036 116.539 16.7266C116.258 16.5495 115.893 16.4609 115.445 16.4609H113.359V26H111.016V14.625H115.445C116.336 14.625 117.099 14.7865 117.734 15.1094C118.375 15.4271 118.865 15.8672 119.203 16.4297C119.542 16.9922 119.711 17.6354 119.711 18.3594C119.711 19.0938 119.542 19.7292 119.203 20.2656C118.865 20.8021 118.375 21.2161 117.734 21.5078C117.099 21.7995 116.336 21.9453 115.445 21.9453ZM124.969 26.1562C124.312 26.1562 123.724 26.0521 123.203 25.8438C122.682 25.6302 122.24 25.3359 121.875 24.9609C121.516 24.5859 121.24 24.151 121.047 23.6562C120.854 23.1562 120.758 22.625 120.758 22.0625V21.75C120.758 21.1094 120.849 20.5234 121.031 19.9922C121.214 19.4609 121.474 19 121.812 18.6094C122.156 18.2188 122.573 17.9193 123.062 17.7109C123.552 17.4974 124.104 17.3906 124.719 17.3906C125.318 17.3906 125.849 17.4896 126.312 17.6875C126.776 17.8854 127.164 18.1667 127.477 18.5312C127.794 18.8958 128.034 19.3333 128.195 19.8438C128.357 20.349 128.438 20.9115 128.438 21.5312V22.4688H121.719V20.9688H126.227V20.7969C126.227 20.4844 126.169 20.2057 126.055 19.9609C125.945 19.7109 125.779 19.513 125.555 19.3672C125.331 19.2214 125.044 19.1484 124.695 19.1484C124.398 19.1484 124.143 19.2135 123.93 19.3438C123.716 19.474 123.542 19.6562 123.406 19.8906C123.276 20.125 123.177 20.401 123.109 20.7188C123.047 21.0312 123.016 21.375 123.016 21.75V22.0625C123.016 22.401 123.062 22.7135 123.156 23C123.255 23.2865 123.393 23.5339 123.57 23.7422C123.753 23.9505 123.971 24.112 124.227 24.2266C124.487 24.3411 124.781 24.3984 125.109 24.3984C125.516 24.3984 125.893 24.3203 126.242 24.1641C126.596 24.0026 126.901 23.7604 127.156 23.4375L128.25 24.625C128.073 24.8802 127.831 25.125 127.523 25.3594C127.221 25.5938 126.857 25.7865 126.43 25.9375C126.003 26.0833 125.516 26.1562 124.969 26.1562ZM133.484 21.9688H131.812V20.9609H133.008C133.289 20.9609 133.513 20.9219 133.68 20.8438C133.852 20.7656 133.974 20.6562 134.047 20.5156C134.125 20.3698 134.164 20.2057 134.164 20.0234C134.164 19.862 134.13 19.7083 134.062 19.5625C134 19.4115 133.885 19.2891 133.719 19.1953C133.557 19.0964 133.328 19.0469 133.031 19.0469C132.786 19.0469 132.568 19.0833 132.375 19.1562C132.188 19.2292 132.039 19.3359 131.93 19.4766C131.826 19.612 131.773 19.776 131.773 19.9688H129.516C129.516 19.4323 129.669 18.974 129.977 18.5938C130.284 18.2083 130.695 17.9141 131.211 17.7109C131.727 17.5026 132.292 17.3984 132.906 17.3984C133.443 17.3984 133.927 17.4531 134.359 17.5625C134.792 17.6667 135.161 17.8229 135.469 18.0312C135.776 18.2396 136.01 18.4974 136.172 18.8047C136.339 19.1068 136.422 19.4583 136.422 19.8594C136.422 20.1458 136.354 20.4167 136.219 20.6719C136.083 20.9271 135.888 21.1536 135.633 21.3516C135.378 21.5443 135.068 21.6953 134.703 21.8047C134.344 21.9141 133.938 21.9688 133.484 21.9688ZM131.812 21.4062H133.484C133.99 21.4062 134.432 21.4557 134.812 21.5547C135.198 21.6484 135.521 21.7891 135.781 21.9766C136.042 22.1641 136.237 22.3958 136.367 22.6719C136.503 22.9427 136.57 23.2552 136.57 23.6094C136.57 24.0104 136.482 24.3698 136.305 24.6875C136.128 25 135.875 25.2656 135.547 25.4844C135.219 25.7031 134.831 25.8698 134.383 25.9844C133.935 26.099 133.443 26.1562 132.906 26.1562C132.333 26.1562 131.776 26.0625 131.234 25.875C130.693 25.6875 130.247 25.3984 129.898 25.0078C129.555 24.6172 129.383 24.1146 129.383 23.5H131.641C131.641 23.6771 131.693 23.8438 131.797 24C131.901 24.1562 132.057 24.2812 132.266 24.375C132.474 24.4635 132.732 24.5078 133.039 24.5078C133.346 24.5078 133.594 24.4583 133.781 24.3594C133.969 24.2604 134.104 24.1302 134.188 23.9688C134.276 23.8021 134.32 23.6302 134.32 23.4531C134.32 23.2031 134.271 23 134.172 22.8438C134.078 22.6875 133.932 22.5729 133.734 22.5C133.542 22.4271 133.299 22.3906 133.008 22.3906H131.812V21.4062ZM140.461 25.0469L142.703 17.5469H145.117L141.719 27.2734C141.646 27.487 141.547 27.7161 141.422 27.9609C141.302 28.2057 141.138 28.4375 140.93 28.6562C140.727 28.8802 140.469 29.0625 140.156 29.2031C139.849 29.3438 139.471 29.4141 139.023 29.4141C138.81 29.4141 138.635 29.401 138.5 29.375C138.365 29.349 138.203 29.3125 138.016 29.2656V27.6172C138.073 27.6172 138.133 27.6172 138.195 27.6172C138.258 27.6224 138.318 27.625 138.375 27.625C138.672 27.625 138.914 27.5911 139.102 27.5234C139.289 27.4557 139.44 27.3516 139.555 27.2109C139.669 27.0755 139.76 26.8984 139.828 26.6797L140.461 25.0469ZM139.523 17.5469L141.359 23.6719L141.68 26.0547L140.148 26.2188L137.109 17.5469H139.523ZM151.375 17.5469V19.3125H147.219V17.5469H151.375ZM153.023 17.5469V26H150.773V17.5469H153.023ZM146.656 17.5469H148.867L148.641 21.8125C148.609 22.4219 148.544 22.9583 148.445 23.4219C148.346 23.8854 148.214 24.2812 148.047 24.6094C147.885 24.9375 147.69 25.2057 147.461 25.4141C147.237 25.6172 146.974 25.7656 146.672 25.8594C146.375 25.9531 146.047 26 145.688 26H145L144.977 24.2266L145.266 24.1953C145.432 24.1797 145.578 24.1328 145.703 24.0547C145.833 23.9714 145.943 23.8542 146.031 23.7031C146.125 23.5469 146.203 23.3516 146.266 23.1172C146.328 22.8776 146.378 22.5964 146.414 22.2734C146.456 21.9505 146.484 21.5781 146.5 21.1562L146.656 17.5469ZM156.32 20.0547H158.773C159.544 20.0547 160.201 20.1823 160.742 20.4375C161.289 20.6875 161.706 21.0365 161.992 21.4844C162.284 21.9323 162.43 22.4505 162.43 23.0391C162.43 23.4661 162.346 23.862 162.18 24.2266C162.018 24.5859 161.781 24.8984 161.469 25.1641C161.156 25.4297 160.773 25.6354 160.32 25.7812C159.867 25.9271 159.352 26 158.773 26H154.914V17.5469H157.172V24.25H158.773C159.112 24.25 159.383 24.1953 159.586 24.0859C159.794 23.9714 159.945 23.8229 160.039 23.6406C160.138 23.4583 160.188 23.2604 160.188 23.0469C160.188 22.8229 160.138 22.6198 160.039 22.4375C159.945 22.25 159.794 22.099 159.586 21.9844C159.383 21.8698 159.112 21.8125 158.773 21.8125H156.32V20.0547ZM167.039 17.5469V26H164.781V17.5469H167.039ZM169.758 17.5469V19.2891H162.102V17.5469H169.758ZM175.344 24.0938V20.3281C175.344 20.0573 175.299 19.8255 175.211 19.6328C175.122 19.4349 174.984 19.2812 174.797 19.1719C174.615 19.0625 174.378 19.0078 174.086 19.0078C173.836 19.0078 173.62 19.0521 173.438 19.1406C173.255 19.224 173.115 19.3464 173.016 19.5078C172.917 19.6641 172.867 19.849 172.867 20.0625H170.617C170.617 19.7031 170.701 19.362 170.867 19.0391C171.034 18.7161 171.276 18.4323 171.594 18.1875C171.911 17.9375 172.289 17.7422 172.727 17.6016C173.169 17.4609 173.664 17.3906 174.211 17.3906C174.867 17.3906 175.451 17.5 175.961 17.7188C176.471 17.9375 176.872 18.2656 177.164 18.7031C177.461 19.1406 177.609 19.6875 177.609 20.3438V23.9609C177.609 24.4245 177.638 24.8047 177.695 25.1016C177.753 25.3932 177.836 25.6484 177.945 25.8672V26H175.672C175.562 25.7708 175.479 25.4844 175.422 25.1406C175.37 24.7917 175.344 24.4427 175.344 24.0938ZM175.641 20.8516L175.656 22.125H174.398C174.102 22.125 173.844 22.1589 173.625 22.2266C173.406 22.2943 173.227 22.3906 173.086 22.5156C172.945 22.6354 172.841 22.776 172.773 22.9375C172.711 23.099 172.68 23.276 172.68 23.4688C172.68 23.6615 172.724 23.8359 172.812 23.9922C172.901 24.1432 173.029 24.263 173.195 24.3516C173.362 24.4349 173.557 24.4766 173.781 24.4766C174.12 24.4766 174.414 24.4089 174.664 24.2734C174.914 24.138 175.107 23.9714 175.242 23.7734C175.383 23.5755 175.456 23.388 175.461 23.2109L176.055 24.1641C175.971 24.3776 175.857 24.599 175.711 24.8281C175.57 25.0573 175.391 25.2734 175.172 25.4766C174.953 25.6745 174.69 25.8385 174.383 25.9688C174.076 26.0938 173.711 26.1562 173.289 26.1562C172.753 26.1562 172.266 26.0495 171.828 25.8359C171.396 25.6172 171.052 25.3177 170.797 24.9375C170.547 24.5521 170.422 24.1146 170.422 23.625C170.422 23.1823 170.505 22.7891 170.672 22.4453C170.839 22.1016 171.083 21.8125 171.406 21.5781C171.734 21.3385 172.143 21.1589 172.633 21.0391C173.122 20.9141 173.69 20.8516 174.336 20.8516H175.641ZM183.523 17.5469V26H181.266V17.5469H183.523ZM186.242 17.5469V19.2891H178.586V17.5469H186.242ZM195.586 22.4688H192.938L192.922 20.9922H195.109C195.401 20.9922 195.638 20.9635 195.82 20.9062C196.003 20.8438 196.135 20.7526 196.219 20.6328C196.307 20.5078 196.352 20.3568 196.352 20.1797C196.352 20.0234 196.323 19.8906 196.266 19.7812C196.214 19.6667 196.133 19.5729 196.023 19.5C195.914 19.4271 195.776 19.375 195.609 19.3438C195.448 19.3073 195.258 19.2891 195.039 19.2891H193.773V26H191.523V17.5469H195.039C195.591 17.5469 196.086 17.5964 196.523 17.6953C196.961 17.7891 197.333 17.9323 197.641 18.125C197.953 18.3177 198.19 18.5625 198.352 18.8594C198.518 19.151 198.602 19.4974 198.602 19.8984C198.602 20.1589 198.542 20.4036 198.422 20.6328C198.307 20.862 198.135 21.0651 197.906 21.2422C197.677 21.4193 197.393 21.5651 197.055 21.6797C196.721 21.7891 196.336 21.8568 195.898 21.8828L195.586 22.4688ZM195.586 26H192.383L193.156 24.2578H195.586C195.862 24.2578 196.089 24.224 196.266 24.1562C196.443 24.0885 196.573 23.9896 196.656 23.8594C196.745 23.724 196.789 23.5625 196.789 23.375C196.789 23.1927 196.75 23.0339 196.672 22.8984C196.594 22.763 196.466 22.6589 196.289 22.5859C196.117 22.5078 195.883 22.4688 195.586 22.4688H193.484L193.5 20.9922H195.891L196.438 21.5859C197.031 21.6224 197.521 21.7344 197.906 21.9219C198.292 22.1094 198.576 22.349 198.758 22.6406C198.945 22.9271 199.039 23.2422 199.039 23.5859C199.039 23.987 198.964 24.3385 198.812 24.6406C198.661 24.9427 198.438 25.1953 198.141 25.3984C197.849 25.5964 197.49 25.7474 197.062 25.8516C196.635 25.9505 196.143 26 195.586 26ZM204.984 24.0938V20.3281C204.984 20.0573 204.94 19.8255 204.852 19.6328C204.763 19.4349 204.625 19.2812 204.438 19.1719C204.255 19.0625 204.018 19.0078 203.727 19.0078C203.477 19.0078 203.26 19.0521 203.078 19.1406C202.896 19.224 202.755 19.3464 202.656 19.5078C202.557 19.6641 202.508 19.849 202.508 20.0625H200.258C200.258 19.7031 200.341 19.362 200.508 19.0391C200.674 18.7161 200.917 18.4323 201.234 18.1875C201.552 17.9375 201.93 17.7422 202.367 17.6016C202.81 17.4609 203.305 17.3906 203.852 17.3906C204.508 17.3906 205.091 17.5 205.602 17.7188C206.112 17.9375 206.513 18.2656 206.805 18.7031C207.102 19.1406 207.25 19.6875 207.25 20.3438V23.9609C207.25 24.4245 207.279 24.8047 207.336 25.1016C207.393 25.3932 207.477 25.6484 207.586 25.8672V26H205.312C205.203 25.7708 205.12 25.4844 205.062 25.1406C205.01 24.7917 204.984 24.4427 204.984 24.0938ZM205.281 20.8516L205.297 22.125H204.039C203.742 22.125 203.484 22.1589 203.266 22.2266C203.047 22.2943 202.867 22.3906 202.727 22.5156C202.586 22.6354 202.482 22.776 202.414 22.9375C202.352 23.099 202.32 23.276 202.32 23.4688C202.32 23.6615 202.365 23.8359 202.453 23.9922C202.542 24.1432 202.669 24.263 202.836 24.3516C203.003 24.4349 203.198 24.4766 203.422 24.4766C203.76 24.4766 204.055 24.4089 204.305 24.2734C204.555 24.138 204.747 23.9714 204.883 23.7734C205.023 23.5755 205.096 23.388 205.102 23.2109L205.695 24.1641C205.612 24.3776 205.497 24.599 205.352 24.8281C205.211 25.0573 205.031 25.2734 204.812 25.4766C204.594 25.6745 204.331 25.8385 204.023 25.9688C203.716 26.0938 203.352 26.1562 202.93 26.1562C202.393 26.1562 201.906 26.0495 201.469 25.8359C201.036 25.6172 200.693 25.3177 200.438 24.9375C200.188 24.5521 200.062 24.1146 200.062 23.625C200.062 23.1823 200.146 22.7891 200.312 22.4453C200.479 22.1016 200.724 21.8125 201.047 21.5781C201.375 21.3385 201.784 21.1589 202.273 21.0391C202.763 20.9141 203.331 20.8516 203.977 20.8516H205.281ZM208.977 17.5469H211.227V24.2422H213.562V17.5469H215.828V24.2422H218.156V17.5469H220.406V26H208.977V17.5469ZM226.109 26.1562C225.453 26.1562 224.865 26.0521 224.344 25.8438C223.823 25.6302 223.38 25.3359 223.016 24.9609C222.656 24.5859 222.38 24.151 222.188 23.6562C221.995 23.1562 221.898 22.625 221.898 22.0625V21.75C221.898 21.1094 221.99 20.5234 222.172 19.9922C222.354 19.4609 222.615 19 222.953 18.6094C223.297 18.2188 223.714 17.9193 224.203 17.7109C224.693 17.4974 225.245 17.3906 225.859 17.3906C226.458 17.3906 226.99 17.4896 227.453 17.6875C227.917 17.8854 228.305 18.1667 228.617 18.5312C228.935 18.8958 229.174 19.3333 229.336 19.8438C229.497 20.349 229.578 20.9115 229.578 21.5312V22.4688H222.859V20.9688H227.367V20.7969C227.367 20.4844 227.31 20.2057 227.195 19.9609C227.086 19.7109 226.919 19.513 226.695 19.3672C226.471 19.2214 226.185 19.1484 225.836 19.1484C225.539 19.1484 225.284 19.2135 225.07 19.3438C224.857 19.474 224.682 19.6562 224.547 19.8906C224.417 20.125 224.318 20.401 224.25 20.7188C224.188 21.0312 224.156 21.375 224.156 21.75V22.0625C224.156 22.401 224.203 22.7135 224.297 23C224.396 23.2865 224.534 23.5339 224.711 23.7422C224.893 23.9505 225.112 24.112 225.367 24.2266C225.628 24.3411 225.922 24.3984 226.25 24.3984C226.656 24.3984 227.034 24.3203 227.383 24.1641C227.737 24.0026 228.042 23.7604 228.297 23.4375L229.391 24.625C229.214 24.8802 228.971 25.125 228.664 25.3594C228.362 25.5938 227.997 25.7865 227.57 25.9375C227.143 26.0833 226.656 26.1562 226.109 26.1562ZM236.609 17.5469V19.3125H233.094V26H230.844V17.5469H236.609ZM237.062 21.8594V21.6953C237.062 21.0755 237.151 20.5052 237.328 19.9844C237.505 19.4583 237.763 19.0026 238.102 18.6172C238.44 18.2318 238.857 17.9323 239.352 17.7188C239.846 17.5 240.414 17.3906 241.055 17.3906C241.695 17.3906 242.266 17.5 242.766 17.7188C243.266 17.9323 243.685 18.2318 244.023 18.6172C244.367 19.0026 244.628 19.4583 244.805 19.9844C244.982 20.5052 245.07 21.0755 245.07 21.6953V21.8594C245.07 22.474 244.982 23.0443 244.805 23.5703C244.628 24.0911 244.367 24.5469 244.023 24.9375C243.685 25.3229 243.268 25.6224 242.773 25.8359C242.279 26.0495 241.711 26.1562 241.07 26.1562C240.43 26.1562 239.859 26.0495 239.359 25.8359C238.865 25.6224 238.445 25.3229 238.102 24.9375C237.763 24.5469 237.505 24.0911 237.328 23.5703C237.151 23.0443 237.062 22.474 237.062 21.8594ZM239.312 21.6953V21.8594C239.312 22.2135 239.344 22.5443 239.406 22.8516C239.469 23.1589 239.568 23.4297 239.703 23.6641C239.844 23.8932 240.026 24.0729 240.25 24.2031C240.474 24.3333 240.747 24.3984 241.07 24.3984C241.383 24.3984 241.651 24.3333 241.875 24.2031C242.099 24.0729 242.279 23.8932 242.414 23.6641C242.549 23.4297 242.648 23.1589 242.711 22.8516C242.779 22.5443 242.812 22.2135 242.812 21.8594V21.6953C242.812 21.3516 242.779 21.0286 242.711 20.7266C242.648 20.4193 242.547 20.1484 242.406 19.9141C242.271 19.6745 242.091 19.487 241.867 19.3516C241.643 19.2161 241.372 19.1484 241.055 19.1484C240.737 19.1484 240.466 19.2161 240.242 19.3516C240.023 19.487 239.844 19.6745 239.703 19.9141C239.568 20.1484 239.469 20.4193 239.406 20.7266C239.344 21.0286 239.312 21.3516 239.312 21.6953ZM250.078 21.8594V21.6953C250.078 21.0755 250.167 20.5052 250.344 19.9844C250.521 19.4583 250.779 19.0026 251.117 18.6172C251.456 18.2318 251.872 17.9323 252.367 17.7188C252.862 17.5 253.43 17.3906 254.07 17.3906C254.711 17.3906 255.281 17.5 255.781 17.7188C256.281 17.9323 256.701 18.2318 257.039 18.6172C257.383 19.0026 257.643 19.4583 257.82 19.9844C257.997 20.5052 258.086 21.0755 258.086 21.6953V21.8594C258.086 22.474 257.997 23.0443 257.82 23.5703C257.643 24.0911 257.383 24.5469 257.039 24.9375C256.701 25.3229 256.284 25.6224 255.789 25.8359C255.294 26.0495 254.727 26.1562 254.086 26.1562C253.445 26.1562 252.875 26.0495 252.375 25.8359C251.88 25.6224 251.461 25.3229 251.117 24.9375C250.779 24.5469 250.521 24.0911 250.344 23.5703C250.167 23.0443 250.078 22.474 250.078 21.8594ZM252.328 21.6953V21.8594C252.328 22.2135 252.359 22.5443 252.422 22.8516C252.484 23.1589 252.583 23.4297 252.719 23.6641C252.859 23.8932 253.042 24.0729 253.266 24.2031C253.49 24.3333 253.763 24.3984 254.086 24.3984C254.398 24.3984 254.667 24.3333 254.891 24.2031C255.115 24.0729 255.294 23.8932 255.43 23.6641C255.565 23.4297 255.664 23.1589 255.727 22.8516C255.794 22.5443 255.828 22.2135 255.828 21.8594V21.6953C255.828 21.3516 255.794 21.0286 255.727 20.7266C255.664 20.4193 255.562 20.1484 255.422 19.9141C255.286 19.6745 255.107 19.487 254.883 19.3516C254.659 19.2161 254.388 19.1484 254.07 19.1484C253.753 19.1484 253.482 19.2161 253.258 19.3516C253.039 19.487 252.859 19.6745 252.719 19.9141C252.583 20.1484 252.484 20.4193 252.422 20.7266C252.359 21.0286 252.328 21.3516 252.328 21.6953ZM264.648 13.8281H266.469C266.469 14.25 266.417 14.612 266.312 14.9141C266.208 15.2109 266.042 15.4661 265.812 15.6797C265.583 15.888 265.276 16.0651 264.891 16.2109C264.505 16.3568 264.029 16.4818 263.461 16.5859C263.023 16.6745 262.643 16.8203 262.32 17.0234C262.003 17.2266 261.74 17.5052 261.531 17.8594C261.328 18.2083 261.182 18.651 261.094 19.1875C261.005 19.7188 260.974 20.3594 261 21.1094V21.4844L259.25 21.7266V21.3516C259.255 20.3307 259.346 19.4427 259.523 18.6875C259.706 17.9323 259.964 17.2969 260.297 16.7812C260.63 16.2604 261.031 15.8464 261.5 15.5391C261.969 15.2266 262.49 15.0078 263.062 14.8828C263.448 14.7995 263.755 14.7188 263.984 14.6406C264.219 14.5573 264.388 14.4531 264.492 14.3281C264.596 14.2031 264.648 14.0365 264.648 13.8281ZM263.664 18.0234C264.237 18.0234 264.745 18.1224 265.188 18.3203C265.63 18.513 266.003 18.7865 266.305 19.1406C266.607 19.4948 266.836 19.9115 266.992 20.3906C267.148 20.8698 267.227 21.3932 267.227 21.9609V22.125C267.227 22.7031 267.138 23.2396 266.961 23.7344C266.789 24.224 266.534 24.651 266.195 25.0156C265.857 25.3802 265.44 25.6641 264.945 25.8672C264.451 26.0651 263.885 26.1641 263.25 26.1641C262.609 26.1641 262.039 26.0573 261.539 25.8438C261.044 25.625 260.625 25.3203 260.281 24.9297C259.943 24.5339 259.685 24.0729 259.508 23.5469C259.336 23.0156 259.25 22.4375 259.25 21.8125V21.6406C259.25 21.5521 259.289 21.4661 259.367 21.3828C259.451 21.2943 259.547 21.1953 259.656 21.0859C259.771 20.9766 259.872 20.8385 259.961 20.6719C260.273 20.0938 260.615 19.6094 260.984 19.2188C261.354 18.8229 261.758 18.526 262.195 18.3281C262.638 18.125 263.128 18.0234 263.664 18.0234ZM263.234 19.7812C262.812 19.7812 262.474 19.8828 262.219 20.0859C261.964 20.2839 261.779 20.5495 261.664 20.8828C261.555 21.2109 261.5 21.5703 261.5 21.9609V22.125C261.5 22.4427 261.531 22.7396 261.594 23.0156C261.656 23.2865 261.755 23.5286 261.891 23.7422C262.026 23.9505 262.206 24.1146 262.43 24.2344C262.654 24.349 262.927 24.4062 263.25 24.4062C263.562 24.4062 263.828 24.349 264.047 24.2344C264.271 24.1146 264.451 23.9505 264.586 23.7422C264.721 23.5286 264.82 23.2865 264.883 23.0156C264.945 22.7396 264.977 22.4427 264.977 22.125V21.9609C264.977 21.6641 264.945 21.3854 264.883 21.125C264.82 20.8594 264.721 20.6276 264.586 20.4297C264.451 20.2266 264.271 20.0677 264.047 19.9531C263.823 19.8385 263.552 19.7812 263.234 19.7812ZM271.102 25.0469L273.344 17.5469H275.758L272.359 27.2734C272.286 27.487 272.188 27.7161 272.062 27.9609C271.943 28.2057 271.779 28.4375 271.57 28.6562C271.367 28.8802 271.109 29.0625 270.797 29.2031C270.49 29.3438 270.112 29.4141 269.664 29.4141C269.451 29.4141 269.276 29.401 269.141 29.375C269.005 29.349 268.844 29.3125 268.656 29.2656V27.6172C268.714 27.6172 268.773 27.6172 268.836 27.6172C268.898 27.6224 268.958 27.625 269.016 27.625C269.312 27.625 269.555 27.5911 269.742 27.5234C269.93 27.4557 270.081 27.3516 270.195 27.2109C270.31 27.0755 270.401 26.8984 270.469 26.6797L271.102 25.0469ZM270.164 17.5469L272 23.6719L272.32 26.0547L270.789 26.2188L267.75 17.5469H270.164ZM283.781 17.5469V26H281.523V17.5469H283.781ZM282.719 21.1641V22.9219C282.547 23.0104 282.326 23.0938 282.055 23.1719C281.784 23.25 281.497 23.3125 281.195 23.3594C280.898 23.401 280.622 23.4219 280.367 23.4219C279.555 23.4219 278.857 23.3099 278.273 23.0859C277.695 22.862 277.25 22.5104 276.938 22.0312C276.625 21.5521 276.469 20.9375 276.469 20.1875V17.5391H278.719V20.1875C278.719 20.5677 278.776 20.8672 278.891 21.0859C279.005 21.2995 279.182 21.4505 279.422 21.5391C279.667 21.6224 279.982 21.6641 280.367 21.6641C280.638 21.6641 280.901 21.6432 281.156 21.6016C281.411 21.5599 281.667 21.5026 281.922 21.4297C282.177 21.3568 282.443 21.2682 282.719 21.1641ZM289.406 26.1562C288.75 26.1562 288.161 26.0521 287.641 25.8438C287.12 25.6302 286.677 25.3359 286.312 24.9609C285.953 24.5859 285.677 24.151 285.484 23.6562C285.292 23.1562 285.195 22.625 285.195 22.0625V21.75C285.195 21.1094 285.286 20.5234 285.469 19.9922C285.651 19.4609 285.911 19 286.25 18.6094C286.594 18.2188 287.01 17.9193 287.5 17.7109C287.99 17.4974 288.542 17.3906 289.156 17.3906C289.755 17.3906 290.286 17.4896 290.75 17.6875C291.214 17.8854 291.602 18.1667 291.914 18.5312C292.232 18.8958 292.471 19.3333 292.633 19.8438C292.794 20.349 292.875 20.9115 292.875 21.5312V22.4688H286.156V20.9688H290.664V20.7969C290.664 20.4844 290.607 20.2057 290.492 19.9609C290.383 19.7109 290.216 19.513 289.992 19.3672C289.768 19.2214 289.482 19.1484 289.133 19.1484C288.836 19.1484 288.581 19.2135 288.367 19.3438C288.154 19.474 287.979 19.6562 287.844 19.8906C287.714 20.125 287.615 20.401 287.547 20.7188C287.484 21.0312 287.453 21.375 287.453 21.75V22.0625C287.453 22.401 287.5 22.7135 287.594 23C287.693 23.2865 287.831 23.5339 288.008 23.7422C288.19 23.9505 288.409 24.112 288.664 24.2266C288.924 24.3411 289.219 24.3984 289.547 24.3984C289.953 24.3984 290.331 24.3203 290.68 24.1641C291.034 24.0026 291.339 23.7604 291.594 23.4375L292.688 24.625C292.51 24.8802 292.268 25.125 291.961 25.3594C291.659 25.5938 291.294 25.7865 290.867 25.9375C290.44 26.0833 289.953 26.1562 289.406 26.1562ZM299.945 20.9609V22.7109H295.648V20.9609H299.945ZM296.398 17.5469V26H294.148V17.5469H296.398ZM301.469 17.5469V26H299.211V17.5469H301.469ZM305.461 22.8594L308.297 17.5469H310.547V26H308.297V20.6797L305.461 26H303.211V17.5469H305.461V22.8594ZM314.102 21.7812H316.383L314.031 26H311.758L314.102 21.7812ZM315.617 17.5469H319.328V26H317.078V19.2891H315.617C315.31 19.2891 315.055 19.3464 314.852 19.4609C314.648 19.5703 314.497 19.7135 314.398 19.8906C314.305 20.0625 314.258 20.2396 314.258 20.4219C314.258 20.599 314.305 20.7708 314.398 20.9375C314.492 21.1042 314.638 21.2422 314.836 21.3516C315.034 21.4609 315.281 21.5156 315.578 21.5156H317.914V23.0469H315.578C315.021 23.0469 314.521 22.9792 314.078 22.8438C313.641 22.7083 313.266 22.5208 312.953 22.2812C312.646 22.0365 312.409 21.7526 312.242 21.4297C312.081 21.1016 312 20.7422 312 20.3516C312 19.9453 312.083 19.5729 312.25 19.2344C312.417 18.8958 312.656 18.599 312.969 18.3438C313.281 18.0885 313.659 17.8932 314.102 17.7578C314.549 17.6172 315.055 17.5469 315.617 17.5469ZM112.695 40.7812H114.977L112.625 45H110.352L112.695 40.7812ZM114.211 36.5469H117.922V45H115.672V38.2891H114.211C113.904 38.2891 113.648 38.3464 113.445 38.4609C113.242 38.5703 113.091 38.7135 112.992 38.8906C112.898 39.0625 112.852 39.2396 112.852 39.4219C112.852 39.599 112.898 39.7708 112.992 39.9375C113.086 40.1042 113.232 40.2422 113.43 40.3516C113.628 40.4609 113.875 40.5156 114.172 40.5156H116.508V42.0469H114.172C113.615 42.0469 113.115 41.9792 112.672 41.8438C112.234 41.7083 111.859 41.5208 111.547 41.2812C111.24 41.0365 111.003 40.7526 110.836 40.4297C110.674 40.1016 110.594 39.7422 110.594 39.3516C110.594 38.9453 110.677 38.5729 110.844 38.2344C111.01 37.8958 111.25 37.599 111.562 37.3438C111.875 37.0885 112.253 36.8932 112.695 36.7578C113.143 36.6172 113.648 36.5469 114.211 36.5469ZM124.039 41.4688H121.391L121.375 39.9922H123.562C123.854 39.9922 124.091 39.9635 124.273 39.9062C124.456 39.8438 124.589 39.7526 124.672 39.6328C124.76 39.5078 124.805 39.3568 124.805 39.1797C124.805 39.0234 124.776 38.8906 124.719 38.7812C124.667 38.6667 124.586 38.5729 124.477 38.5C124.367 38.4271 124.229 38.375 124.062 38.3438C123.901 38.3073 123.711 38.2891 123.492 38.2891H122.227V45H119.977V36.5469H123.492C124.044 36.5469 124.539 36.5964 124.977 36.6953C125.414 36.7891 125.786 36.9323 126.094 37.125C126.406 37.3177 126.643 37.5625 126.805 37.8594C126.971 38.151 127.055 38.4974 127.055 38.8984C127.055 39.1589 126.995 39.4036 126.875 39.6328C126.76 39.862 126.589 40.0651 126.359 40.2422C126.13 40.4193 125.846 40.5651 125.508 40.6797C125.174 40.7891 124.789 40.8568 124.352 40.8828L124.039 41.4688ZM124.039 45H120.836L121.609 43.2578H124.039C124.315 43.2578 124.542 43.224 124.719 43.1562C124.896 43.0885 125.026 42.9896 125.109 42.8594C125.198 42.724 125.242 42.5625 125.242 42.375C125.242 42.1927 125.203 42.0339 125.125 41.8984C125.047 41.763 124.919 41.6589 124.742 41.5859C124.57 41.5078 124.336 41.4688 124.039 41.4688H121.938L121.953 39.9922H124.344L124.891 40.5859C125.484 40.6224 125.974 40.7344 126.359 40.9219C126.745 41.1094 127.029 41.349 127.211 41.6406C127.398 41.9271 127.492 42.2422 127.492 42.5859C127.492 42.987 127.417 43.3385 127.266 43.6406C127.115 43.9427 126.891 44.1953 126.594 44.3984C126.302 44.5964 125.943 44.7474 125.516 44.8516C125.089 44.9505 124.596 45 124.039 45ZM134.562 36.5469V38.3125H130.406V36.5469H134.562ZM136.211 36.5469V45H133.961V36.5469H136.211ZM129.844 36.5469H132.055L131.828 40.8125C131.797 41.4219 131.732 41.9583 131.633 42.4219C131.534 42.8854 131.401 43.2812 131.234 43.6094C131.073 43.9375 130.878 44.2057 130.648 44.4141C130.424 44.6172 130.161 44.7656 129.859 44.8594C129.562 44.9531 129.234 45 128.875 45H128.188L128.164 43.2266L128.453 43.1953C128.62 43.1797 128.766 43.1328 128.891 43.0547C129.021 42.9714 129.13 42.8542 129.219 42.7031C129.312 42.5469 129.391 42.3516 129.453 42.1172C129.516 41.8776 129.565 41.5964 129.602 41.2734C129.643 40.9505 129.672 40.5781 129.688 40.1562L129.844 36.5469ZM139.773 40.7812H142.055L139.703 45H137.43L139.773 40.7812ZM141.289 36.5469H145V45H142.75V38.2891H141.289C140.982 38.2891 140.727 38.3464 140.523 38.4609C140.32 38.5703 140.169 38.7135 140.07 38.8906C139.977 39.0625 139.93 39.2396 139.93 39.4219C139.93 39.599 139.977 39.7708 140.07 39.9375C140.164 40.1042 140.31 40.2422 140.508 40.3516C140.706 40.4609 140.953 40.5156 141.25 40.5156H143.586V42.0469H141.25C140.693 42.0469 140.193 41.9792 139.75 41.8438C139.312 41.7083 138.938 41.5208 138.625 41.2812C138.318 41.0365 138.081 40.7526 137.914 40.4297C137.753 40.1016 137.672 39.7422 137.672 39.3516C137.672 38.9453 137.755 38.5729 137.922 38.2344C138.089 37.8958 138.328 37.599 138.641 37.3438C138.953 37.0885 139.331 36.8932 139.773 36.7578C140.221 36.6172 140.727 36.5469 141.289 36.5469ZM150.797 45.1562C150.141 45.1562 149.552 45.0521 149.031 44.8438C148.51 44.6302 148.068 44.3359 147.703 43.9609C147.344 43.5859 147.068 43.151 146.875 42.6562C146.682 42.1562 146.586 41.625 146.586 41.0625V40.75C146.586 40.1094 146.677 39.5234 146.859 38.9922C147.042 38.4609 147.302 38 147.641 37.6094C147.984 37.2188 148.401 36.9193 148.891 36.7109C149.38 36.4974 149.932 36.3906 150.547 36.3906C151.146 36.3906 151.677 36.4896 152.141 36.6875C152.604 36.8854 152.992 37.1667 153.305 37.5312C153.622 37.8958 153.862 38.3333 154.023 38.8438C154.185 39.349 154.266 39.9115 154.266 40.5312V41.4688H147.547V39.9688H152.055V39.7969C152.055 39.4844 151.997 39.2057 151.883 38.9609C151.773 38.7109 151.607 38.513 151.383 38.3672C151.159 38.2214 150.872 38.1484 150.523 38.1484C150.227 38.1484 149.971 38.2135 149.758 38.3438C149.544 38.474 149.37 38.6562 149.234 38.8906C149.104 39.125 149.005 39.401 148.938 39.7188C148.875 40.0312 148.844 40.375 148.844 40.75V41.0625C148.844 41.401 148.891 41.7135 148.984 42C149.083 42.2865 149.221 42.5339 149.398 42.7422C149.581 42.9505 149.799 43.112 150.055 43.2266C150.315 43.3411 150.609 43.3984 150.938 43.3984C151.344 43.3984 151.721 43.3203 152.07 43.1641C152.424 43.0026 152.729 42.7604 152.984 42.4375L154.078 43.625C153.901 43.8802 153.659 44.125 153.352 44.3594C153.049 44.5938 152.685 44.7865 152.258 44.9375C151.831 45.0833 151.344 45.1562 150.797 45.1562ZM159.758 36.5469V45H157.5V36.5469H159.758ZM162.477 36.5469V38.2891H154.82V36.5469H162.477ZM166.57 43.3984C166.846 43.3984 167.091 43.3464 167.305 43.2422C167.518 43.1328 167.685 42.9818 167.805 42.7891C167.93 42.5911 167.995 42.3594 168 42.0938H170.117C170.112 42.6875 169.953 43.2161 169.641 43.6797C169.328 44.138 168.909 44.5 168.383 44.7656C167.857 45.026 167.268 45.1562 166.617 45.1562C165.961 45.1562 165.388 45.0469 164.898 44.8281C164.414 44.6094 164.01 44.3073 163.688 43.9219C163.365 43.5312 163.122 43.0781 162.961 42.5625C162.799 42.0417 162.719 41.4844 162.719 40.8906V40.6641C162.719 40.0651 162.799 39.5078 162.961 38.9922C163.122 38.4714 163.365 38.0182 163.688 37.6328C164.01 37.2422 164.414 36.9375 164.898 36.7188C165.383 36.5 165.951 36.3906 166.602 36.3906C167.294 36.3906 167.901 36.5234 168.422 36.7891C168.948 37.0547 169.359 37.4349 169.656 37.9297C169.958 38.4193 170.112 39 170.117 39.6719H168C167.995 39.3906 167.935 39.1354 167.82 38.9062C167.711 38.6771 167.549 38.4948 167.336 38.3594C167.128 38.2188 166.87 38.1484 166.562 38.1484C166.234 38.1484 165.966 38.2188 165.758 38.3594C165.549 38.4948 165.388 38.6823 165.273 38.9219C165.159 39.1562 165.078 39.4245 165.031 39.7266C164.99 40.0234 164.969 40.3359 164.969 40.6641V40.8906C164.969 41.2188 164.99 41.5339 165.031 41.8359C165.073 42.138 165.151 42.4062 165.266 42.6406C165.385 42.875 165.549 43.0599 165.758 43.1953C165.966 43.3307 166.237 43.3984 166.57 43.3984ZM173.242 40.7812H175.523L173.172 45H170.898L173.242 40.7812ZM174.758 36.5469H178.469V45H176.219V38.2891H174.758C174.451 38.2891 174.195 38.3464 173.992 38.4609C173.789 38.5703 173.638 38.7135 173.539 38.8906C173.445 39.0625 173.398 39.2396 173.398 39.4219C173.398 39.599 173.445 39.7708 173.539 39.9375C173.633 40.1042 173.779 40.2422 173.977 40.3516C174.174 40.4609 174.422 40.5156 174.719 40.5156H177.055V42.0469H174.719C174.161 42.0469 173.661 41.9792 173.219 41.8438C172.781 41.7083 172.406 41.5208 172.094 41.2812C171.786 41.0365 171.549 40.7526 171.383 40.4297C171.221 40.1016 171.141 39.7422 171.141 39.3516C171.141 38.9453 171.224 38.5729 171.391 38.2344C171.557 37.8958 171.797 37.599 172.109 37.3438C172.422 37.0885 172.799 36.8932 173.242 36.7578C173.69 36.6172 174.195 36.5469 174.758 36.5469ZM187.852 43.3984C188.128 43.3984 188.372 43.3464 188.586 43.2422C188.799 43.1328 188.966 42.9818 189.086 42.7891C189.211 42.5911 189.276 42.3594 189.281 42.0938H191.398C191.393 42.6875 191.234 43.2161 190.922 43.6797C190.609 44.138 190.19 44.5 189.664 44.7656C189.138 45.026 188.549 45.1562 187.898 45.1562C187.242 45.1562 186.669 45.0469 186.18 44.8281C185.695 44.6094 185.292 44.3073 184.969 43.9219C184.646 43.5312 184.404 43.0781 184.242 42.5625C184.081 42.0417 184 41.4844 184 40.8906V40.6641C184 40.0651 184.081 39.5078 184.242 38.9922C184.404 38.4714 184.646 38.0182 184.969 37.6328C185.292 37.2422 185.695 36.9375 186.18 36.7188C186.664 36.5 187.232 36.3906 187.883 36.3906C188.576 36.3906 189.182 36.5234 189.703 36.7891C190.229 37.0547 190.641 37.4349 190.938 37.9297C191.24 38.4193 191.393 39 191.398 39.6719H189.281C189.276 39.3906 189.216 39.1354 189.102 38.9062C188.992 38.6771 188.831 38.4948 188.617 38.3594C188.409 38.2188 188.151 38.1484 187.844 38.1484C187.516 38.1484 187.247 38.2188 187.039 38.3594C186.831 38.4948 186.669 38.6823 186.555 38.9219C186.44 39.1562 186.359 39.4245 186.312 39.7266C186.271 40.0234 186.25 40.3359 186.25 40.6641V40.8906C186.25 41.2188 186.271 41.5339 186.312 41.8359C186.354 42.138 186.432 42.4062 186.547 42.6406C186.667 42.875 186.831 43.0599 187.039 43.1953C187.247 43.3307 187.518 43.3984 187.852 43.3984ZM197.266 43.0938V39.3281C197.266 39.0573 197.221 38.8255 197.133 38.6328C197.044 38.4349 196.906 38.2812 196.719 38.1719C196.536 38.0625 196.299 38.0078 196.008 38.0078C195.758 38.0078 195.542 38.0521 195.359 38.1406C195.177 38.224 195.036 38.3464 194.938 38.5078C194.839 38.6641 194.789 38.849 194.789 39.0625H192.539C192.539 38.7031 192.622 38.362 192.789 38.0391C192.956 37.7161 193.198 37.4323 193.516 37.1875C193.833 36.9375 194.211 36.7422 194.648 36.6016C195.091 36.4609 195.586 36.3906 196.133 36.3906C196.789 36.3906 197.372 36.5 197.883 36.7188C198.393 36.9375 198.794 37.2656 199.086 37.7031C199.383 38.1406 199.531 38.6875 199.531 39.3438V42.9609C199.531 43.4245 199.56 43.8047 199.617 44.1016C199.674 44.3932 199.758 44.6484 199.867 44.8672V45H197.594C197.484 44.7708 197.401 44.4844 197.344 44.1406C197.292 43.7917 197.266 43.4427 197.266 43.0938ZM197.562 39.8516L197.578 41.125H196.32C196.023 41.125 195.766 41.1589 195.547 41.2266C195.328 41.2943 195.148 41.3906 195.008 41.5156C194.867 41.6354 194.763 41.776 194.695 41.9375C194.633 42.099 194.602 42.276 194.602 42.4688C194.602 42.6615 194.646 42.8359 194.734 42.9922C194.823 43.1432 194.951 43.263 195.117 43.3516C195.284 43.4349 195.479 43.4766 195.703 43.4766C196.042 43.4766 196.336 43.4089 196.586 43.2734C196.836 43.138 197.029 42.9714 197.164 42.7734C197.305 42.5755 197.378 42.388 197.383 42.2109L197.977 43.1641C197.893 43.3776 197.779 43.599 197.633 43.8281C197.492 44.0573 197.312 44.2734 197.094 44.4766C196.875 44.6745 196.612 44.8385 196.305 44.9688C195.997 45.0938 195.633 45.1562 195.211 45.1562C194.674 45.1562 194.188 45.0495 193.75 44.8359C193.318 44.6172 192.974 44.3177 192.719 43.9375C192.469 43.5521 192.344 43.1146 192.344 42.625C192.344 42.1823 192.427 41.7891 192.594 41.4453C192.76 41.1016 193.005 40.8125 193.328 40.5781C193.656 40.3385 194.065 40.1589 194.555 40.0391C195.044 39.9141 195.612 39.8516 196.258 39.8516H197.562ZM206.406 42.4141L208.625 36.5469H210.461L207.164 45H205.648L202.367 36.5469H204.203L206.406 42.4141ZM203.664 36.5469V45H201.414V36.5469H203.664ZM209.203 45V36.5469H211.453V45H209.203ZM214.977 39.0547H217.43C218.201 39.0547 218.857 39.1823 219.398 39.4375C219.945 39.6875 220.362 40.0365 220.648 40.4844C220.94 40.9323 221.086 41.4505 221.086 42.0391C221.086 42.4661 221.003 42.862 220.836 43.2266C220.674 43.5859 220.438 43.8984 220.125 44.1641C219.812 44.4297 219.43 44.6354 218.977 44.7812C218.523 44.9271 218.008 45 217.43 45H213.57V36.5469H215.828V43.25H217.43C217.768 43.25 218.039 43.1953 218.242 43.0859C218.451 42.9714 218.602 42.8229 218.695 42.6406C218.794 42.4583 218.844 42.2604 218.844 42.0469C218.844 41.8229 218.794 41.6198 218.695 41.4375C218.602 41.25 218.451 41.099 218.242 40.9844C218.039 40.8698 217.768 40.8125 217.43 40.8125H214.977V39.0547ZM224.695 36.5469V45H222.445V36.5469H224.695ZM231.812 42.4141L234.031 36.5469H235.867L232.57 45H231.055L227.773 36.5469H229.609L231.812 42.4141ZM229.07 36.5469V45H226.82V36.5469H229.07ZM234.609 45V36.5469H236.859V45H234.609ZM247.023 41.4688H244.375L244.359 39.9922H246.547C246.839 39.9922 247.076 39.9635 247.258 39.9062C247.44 39.8438 247.573 39.7526 247.656 39.6328C247.745 39.5078 247.789 39.3568 247.789 39.1797C247.789 39.0234 247.76 38.8906 247.703 38.7812C247.651 38.6667 247.57 38.5729 247.461 38.5C247.352 38.4271 247.214 38.375 247.047 38.3438C246.885 38.3073 246.695 38.2891 246.477 38.2891H245.211V45H242.961V36.5469H246.477C247.029 36.5469 247.523 36.5964 247.961 36.6953C248.398 36.7891 248.771 36.9323 249.078 37.125C249.391 37.3177 249.628 37.5625 249.789 37.8594C249.956 38.151 250.039 38.4974 250.039 38.8984C250.039 39.1589 249.979 39.4036 249.859 39.6328C249.745 39.862 249.573 40.0651 249.344 40.2422C249.115 40.4193 248.831 40.5651 248.492 40.6797C248.159 40.7891 247.773 40.8568 247.336 40.8828L247.023 41.4688ZM247.023 45H243.82L244.594 43.2578H247.023C247.299 43.2578 247.526 43.224 247.703 43.1562C247.88 43.0885 248.01 42.9896 248.094 42.8594C248.182 42.724 248.227 42.5625 248.227 42.375C248.227 42.1927 248.188 42.0339 248.109 41.8984C248.031 41.763 247.904 41.6589 247.727 41.5859C247.555 41.5078 247.32 41.4688 247.023 41.4688H244.922L244.938 39.9922H247.328L247.875 40.5859C248.469 40.6224 248.958 40.7344 249.344 40.9219C249.729 41.1094 250.013 41.349 250.195 41.6406C250.383 41.9271 250.477 42.2422 250.477 42.5859C250.477 42.987 250.401 43.3385 250.25 43.6406C250.099 43.9427 249.875 44.1953 249.578 44.3984C249.286 44.5964 248.927 44.7474 248.5 44.8516C248.073 44.9505 247.581 45 247.023 45ZM256.422 43.0938V39.3281C256.422 39.0573 256.378 38.8255 256.289 38.6328C256.201 38.4349 256.062 38.2812 255.875 38.1719C255.693 38.0625 255.456 38.0078 255.164 38.0078C254.914 38.0078 254.698 38.0521 254.516 38.1406C254.333 38.224 254.193 38.3464 254.094 38.5078C253.995 38.6641 253.945 38.849 253.945 39.0625H251.695C251.695 38.7031 251.779 38.362 251.945 38.0391C252.112 37.7161 252.354 37.4323 252.672 37.1875C252.99 36.9375 253.367 36.7422 253.805 36.6016C254.247 36.4609 254.742 36.3906 255.289 36.3906C255.945 36.3906 256.529 36.5 257.039 36.7188C257.549 36.9375 257.951 37.2656 258.242 37.7031C258.539 38.1406 258.688 38.6875 258.688 39.3438V42.9609C258.688 43.4245 258.716 43.8047 258.773 44.1016C258.831 44.3932 258.914 44.6484 259.023 44.8672V45H256.75C256.641 44.7708 256.557 44.4844 256.5 44.1406C256.448 43.7917 256.422 43.4427 256.422 43.0938ZM256.719 39.8516L256.734 41.125H255.477C255.18 41.125 254.922 41.1589 254.703 41.2266C254.484 41.2943 254.305 41.3906 254.164 41.5156C254.023 41.6354 253.919 41.776 253.852 41.9375C253.789 42.099 253.758 42.276 253.758 42.4688C253.758 42.6615 253.802 42.8359 253.891 42.9922C253.979 43.1432 254.107 43.263 254.273 43.3516C254.44 43.4349 254.635 43.4766 254.859 43.4766C255.198 43.4766 255.492 43.4089 255.742 43.2734C255.992 43.138 256.185 42.9714 256.32 42.7734C256.461 42.5755 256.534 42.388 256.539 42.2109L257.133 43.1641C257.049 43.3776 256.935 43.599 256.789 43.8281C256.648 44.0573 256.469 44.2734 256.25 44.4766C256.031 44.6745 255.768 44.8385 255.461 44.9688C255.154 45.0938 254.789 45.1562 254.367 45.1562C253.831 45.1562 253.344 45.0495 252.906 44.8359C252.474 44.6172 252.13 44.3177 251.875 43.9375C251.625 43.5521 251.5 43.1146 251.5 42.625C251.5 42.1823 251.583 41.7891 251.75 41.4453C251.917 41.1016 252.161 40.8125 252.484 40.5781C252.812 40.3385 253.221 40.1589 253.711 40.0391C254.201 39.9141 254.768 39.8516 255.414 39.8516H256.719ZM263.406 41.8125L259.891 36.5469H262.68L264.477 39.7344H266.094L265.82 41.8125H263.406ZM264.508 41.4297L262.578 45H259.867L262.672 40.3438L264.508 41.4297ZM267.555 36.5469V45H265.305V36.5469H267.555ZM272.992 36.5469L269.477 41.8125H267.062L266.789 39.7344H268.406L270.195 36.5469H272.992ZM270.297 45L268.367 41.4297L270.273 40.3438L273.062 45H270.297ZM279.945 39.9609V41.7109H275.648V39.9609H279.945ZM276.398 36.5469V45H274.148V36.5469H276.398ZM281.469 36.5469V45H279.211V36.5469H281.469ZM284.773 39.0547H287.227C287.997 39.0547 288.654 39.1823 289.195 39.4375C289.742 39.6875 290.159 40.0365 290.445 40.4844C290.737 40.9323 290.883 41.4505 290.883 42.0391C290.883 42.4661 290.799 42.862 290.633 43.2266C290.471 43.5859 290.234 43.8984 289.922 44.1641C289.609 44.4297 289.227 44.6354 288.773 44.7812C288.32 44.9271 287.805 45 287.227 45H283.367V36.5469H285.625V43.25H287.227C287.565 43.25 287.836 43.1953 288.039 43.0859C288.247 42.9714 288.398 42.8229 288.492 42.6406C288.591 42.4583 288.641 42.2604 288.641 42.0469C288.641 41.8229 288.591 41.6198 288.492 41.4375C288.398 41.25 288.247 41.099 288.039 40.9844C287.836 40.8698 287.565 40.8125 287.227 40.8125H284.773V39.0547ZM294.492 36.5469V45H292.242V36.5469H294.492ZM301.609 42.4141L303.828 36.5469H305.664L302.367 45H300.852L297.57 36.5469H299.406L301.609 42.4141ZM298.867 36.5469V45H296.617V36.5469H298.867ZM304.406 45V36.5469H306.656V45H304.406ZM314.133 36.5469H316.383L316.312 39.375C316.292 40.2812 316.188 41.0599 316 41.7109C315.812 42.362 315.562 42.9089 315.25 43.3516C314.938 43.7943 314.581 44.1484 314.18 44.4141C313.784 44.6745 313.367 44.8698 312.93 45H312.508L312.484 43.2656L312.719 43.2422C312.984 42.9661 313.203 42.6979 313.375 42.4375C313.547 42.1719 313.68 41.8932 313.773 41.6016C313.867 41.3099 313.935 40.9844 313.977 40.625C314.023 40.2656 314.052 39.849 314.062 39.375L314.133 36.5469ZM314.742 36.5469H320.344V45H318.102V38.3516H314.742V36.5469ZM311.992 43.2422H321.555V47.5391H319.305V45H314.297V47.5391H311.992V43.2422ZM328.391 36.5469V38.3125H324.234V36.5469H328.391ZM330.039 36.5469V45H327.789V36.5469H330.039ZM323.672 36.5469H325.883L325.656 40.8125C325.625 41.4219 325.56 41.9583 325.461 42.4219C325.362 42.8854 325.229 43.2812 325.062 43.6094C324.901 43.9375 324.706 44.2057 324.477 44.4141C324.253 44.6172 323.99 44.7656 323.688 44.8594C323.391 44.9531 323.062 45 322.703 45H322.016L321.992 43.2266L322.281 43.1953C322.448 43.1797 322.594 43.1328 322.719 43.0547C322.849 42.9714 322.958 42.8542 323.047 42.7031C323.141 42.5469 323.219 42.3516 323.281 42.1172C323.344 41.8776 323.393 41.5964 323.43 41.2734C323.471 40.9505 323.5 40.5781 323.516 40.1562L323.672 36.5469ZM333.602 40.7812H335.883L333.531 45H331.258L333.602 40.7812ZM335.117 36.5469H338.828V45H336.578V38.2891H335.117C334.81 38.2891 334.555 38.3464 334.352 38.4609C334.148 38.5703 333.997 38.7135 333.898 38.8906C333.805 39.0625 333.758 39.2396 333.758 39.4219C333.758 39.599 333.805 39.7708 333.898 39.9375C333.992 40.1042 334.138 40.2422 334.336 40.3516C334.534 40.4609 334.781 40.5156 335.078 40.5156H337.414V42.0469H335.078C334.521 42.0469 334.021 41.9792 333.578 41.8438C333.141 41.7083 332.766 41.5208 332.453 41.2812C332.146 41.0365 331.909 40.7526 331.742 40.4297C331.581 40.1016 331.5 39.7422 331.5 39.3516C331.5 38.9453 331.583 38.5729 331.75 38.2344C331.917 37.8958 332.156 37.599 332.469 37.3438C332.781 37.0885 333.159 36.8932 333.602 36.7578C334.049 36.6172 334.555 36.5469 335.117 36.5469ZM116.664 58.9609V60.7109H112.367V58.9609H116.664ZM113.117 55.5469V64H110.867V55.5469H113.117ZM118.188 55.5469V64H115.93V55.5469H118.188ZM124.5 62.0938V58.3281C124.5 58.0573 124.456 57.8255 124.367 57.6328C124.279 57.4349 124.141 57.2812 123.953 57.1719C123.771 57.0625 123.534 57.0078 123.242 57.0078C122.992 57.0078 122.776 57.0521 122.594 57.1406C122.411 57.224 122.271 57.3464 122.172 57.5078C122.073 57.6641 122.023 57.849 122.023 58.0625H119.773C119.773 57.7031 119.857 57.362 120.023 57.0391C120.19 56.7161 120.432 56.4323 120.75 56.1875C121.068 55.9375 121.445 55.7422 121.883 55.6016C122.326 55.4609 122.82 55.3906 123.367 55.3906C124.023 55.3906 124.607 55.5 125.117 55.7188C125.628 55.9375 126.029 56.2656 126.32 56.7031C126.617 57.1406 126.766 57.6875 126.766 58.3438V61.9609C126.766 62.4245 126.794 62.8047 126.852 63.1016C126.909 63.3932 126.992 63.6484 127.102 63.8672V64H124.828C124.719 63.7708 124.635 63.4844 124.578 63.1406C124.526 62.7917 124.5 62.4427 124.5 62.0938ZM124.797 58.8516L124.812 60.125H123.555C123.258 60.125 123 60.1589 122.781 60.2266C122.562 60.2943 122.383 60.3906 122.242 60.5156C122.102 60.6354 121.997 60.776 121.93 60.9375C121.867 61.099 121.836 61.276 121.836 61.4688C121.836 61.6615 121.88 61.8359 121.969 61.9922C122.057 62.1432 122.185 62.263 122.352 62.3516C122.518 62.4349 122.714 62.4766 122.938 62.4766C123.276 62.4766 123.57 62.4089 123.82 62.2734C124.07 62.138 124.263 61.9714 124.398 61.7734C124.539 61.5755 124.612 61.388 124.617 61.2109L125.211 62.1641C125.128 62.3776 125.013 62.599 124.867 62.8281C124.727 63.0573 124.547 63.2734 124.328 63.4766C124.109 63.6745 123.846 63.8385 123.539 63.9688C123.232 64.0938 122.867 64.1562 122.445 64.1562C121.909 64.1562 121.422 64.0495 120.984 63.8359C120.552 63.6172 120.208 63.3177 119.953 62.9375C119.703 62.5521 119.578 62.1146 119.578 61.625C119.578 61.1823 119.661 60.7891 119.828 60.4453C119.995 60.1016 120.24 59.8125 120.562 59.5781C120.891 59.3385 121.299 59.1589 121.789 59.0391C122.279 58.9141 122.846 58.8516 123.492 58.8516H124.797ZM131.992 62.3984C132.268 62.3984 132.513 62.3464 132.727 62.2422C132.94 62.1328 133.107 61.9818 133.227 61.7891C133.352 61.5911 133.417 61.3594 133.422 61.0938H135.539C135.534 61.6875 135.375 62.2161 135.062 62.6797C134.75 63.138 134.331 63.5 133.805 63.7656C133.279 64.026 132.69 64.1562 132.039 64.1562C131.383 64.1562 130.81 64.0469 130.32 63.8281C129.836 63.6094 129.432 63.3073 129.109 62.9219C128.786 62.5312 128.544 62.0781 128.383 61.5625C128.221 61.0417 128.141 60.4844 128.141 59.8906V59.6641C128.141 59.0651 128.221 58.5078 128.383 57.9922C128.544 57.4714 128.786 57.0182 129.109 56.6328C129.432 56.2422 129.836 55.9375 130.32 55.7188C130.805 55.5 131.372 55.3906 132.023 55.3906C132.716 55.3906 133.323 55.5234 133.844 55.7891C134.37 56.0547 134.781 56.4349 135.078 56.9297C135.38 57.4193 135.534 58 135.539 58.6719H133.422C133.417 58.3906 133.357 58.1354 133.242 57.9062C133.133 57.6771 132.971 57.4948 132.758 57.3594C132.549 57.2188 132.292 57.1484 131.984 57.1484C131.656 57.1484 131.388 57.2188 131.18 57.3594C130.971 57.4948 130.81 57.6823 130.695 57.9219C130.581 58.1562 130.5 58.4245 130.453 58.7266C130.411 59.0234 130.391 59.3359 130.391 59.6641V59.8906C130.391 60.2188 130.411 60.5339 130.453 60.8359C130.495 61.138 130.573 61.4062 130.688 61.6406C130.807 61.875 130.971 62.0599 131.18 62.1953C131.388 62.3307 131.659 62.3984 131.992 62.3984ZM146.516 55.5469V57.3125H142.422V55.5469H146.516ZM143.07 55.5469V64H140.82V55.5469H143.07ZM148.156 55.5469V64H145.898V55.5469H148.156ZM152.141 57.1719V67.25H149.891V55.5469H151.977L152.141 57.1719ZM157.492 59.6797V59.8438C157.492 60.4583 157.419 61.0286 157.273 61.5547C157.133 62.0807 156.924 62.5391 156.648 62.9297C156.372 63.3151 156.029 63.6172 155.617 63.8359C155.211 64.0495 154.742 64.1562 154.211 64.1562C153.695 64.1562 153.247 64.0521 152.867 63.8438C152.487 63.6354 152.167 63.3438 151.906 62.9688C151.651 62.5885 151.445 62.1484 151.289 61.6484C151.133 61.1484 151.013 60.612 150.93 60.0391V59.6094C151.013 58.9948 151.133 58.4323 151.289 57.9219C151.445 57.4062 151.651 56.9609 151.906 56.5859C152.167 56.2057 152.484 55.9115 152.859 55.7031C153.24 55.4948 153.685 55.3906 154.195 55.3906C154.732 55.3906 155.203 55.4922 155.609 55.6953C156.021 55.8984 156.365 56.1901 156.641 56.5703C156.922 56.9505 157.133 57.4036 157.273 57.9297C157.419 58.4557 157.492 59.0391 157.492 59.6797ZM155.234 59.8438V59.6797C155.234 59.3203 155.203 58.9896 155.141 58.6875C155.083 58.3802 154.99 58.112 154.859 57.8828C154.734 57.6536 154.568 57.4766 154.359 57.3516C154.156 57.2214 153.909 57.1562 153.617 57.1562C153.31 57.1562 153.047 57.2057 152.828 57.3047C152.615 57.4036 152.44 57.5469 152.305 57.7344C152.169 57.9219 152.068 58.1458 152 58.4062C151.932 58.6667 151.891 58.9609 151.875 59.2891V60.375C151.901 60.7604 151.974 61.1068 152.094 61.4141C152.214 61.7161 152.398 61.9557 152.648 62.1328C152.898 62.3099 153.227 62.3984 153.633 62.3984C153.93 62.3984 154.18 62.3333 154.383 62.2031C154.586 62.0677 154.75 61.8828 154.875 61.6484C155.005 61.4141 155.096 61.1432 155.148 60.8359C155.206 60.5286 155.234 60.1979 155.234 59.8438ZM161.133 60.8594L163.969 55.5469H166.219V64H163.969V58.6797L161.133 64H158.883V55.5469H161.133V60.8594ZM167.594 59.8594V59.6953C167.594 59.0755 167.682 58.5052 167.859 57.9844C168.036 57.4583 168.294 57.0026 168.633 56.6172C168.971 56.2318 169.388 55.9323 169.883 55.7188C170.378 55.5 170.945 55.3906 171.586 55.3906C172.227 55.3906 172.797 55.5 173.297 55.7188C173.797 55.9323 174.216 56.2318 174.555 56.6172C174.898 57.0026 175.159 57.4583 175.336 57.9844C175.513 58.5052 175.602 59.0755 175.602 59.6953V59.8594C175.602 60.474 175.513 61.0443 175.336 61.5703C175.159 62.0911 174.898 62.5469 174.555 62.9375C174.216 63.3229 173.799 63.6224 173.305 63.8359C172.81 64.0495 172.242 64.1562 171.602 64.1562C170.961 64.1562 170.391 64.0495 169.891 63.8359C169.396 63.6224 168.977 63.3229 168.633 62.9375C168.294 62.5469 168.036 62.0911 167.859 61.5703C167.682 61.0443 167.594 60.474 167.594 59.8594ZM169.844 59.6953V59.8594C169.844 60.2135 169.875 60.5443 169.938 60.8516C170 61.1589 170.099 61.4297 170.234 61.6641C170.375 61.8932 170.557 62.0729 170.781 62.2031C171.005 62.3333 171.279 62.3984 171.602 62.3984C171.914 62.3984 172.182 62.3333 172.406 62.2031C172.63 62.0729 172.81 61.8932 172.945 61.6641C173.081 61.4297 173.18 61.1589 173.242 60.8516C173.31 60.5443 173.344 60.2135 173.344 59.8594V59.6953C173.344 59.3516 173.31 59.0286 173.242 58.7266C173.18 58.4193 173.078 58.1484 172.938 57.9141C172.802 57.6745 172.622 57.487 172.398 57.3516C172.174 57.2161 171.904 57.1484 171.586 57.1484C171.268 57.1484 170.997 57.2161 170.773 57.3516C170.555 57.487 170.375 57.6745 170.234 57.9141C170.099 58.1484 170 58.4193 169.938 58.7266C169.875 59.0286 169.844 59.3516 169.844 59.6953ZM179.234 57.1719V67.25H176.984V55.5469H179.07L179.234 57.1719ZM184.586 59.6797V59.8438C184.586 60.4583 184.513 61.0286 184.367 61.5547C184.227 62.0807 184.018 62.5391 183.742 62.9297C183.466 63.3151 183.122 63.6172 182.711 63.8359C182.305 64.0495 181.836 64.1562 181.305 64.1562C180.789 64.1562 180.341 64.0521 179.961 63.8438C179.581 63.6354 179.26 63.3438 179 62.9688C178.745 62.5885 178.539 62.1484 178.383 61.6484C178.227 61.1484 178.107 60.612 178.023 60.0391V59.6094C178.107 58.9948 178.227 58.4323 178.383 57.9219C178.539 57.4062 178.745 56.9609 179 56.5859C179.26 56.2057 179.578 55.9115 179.953 55.7031C180.333 55.4948 180.779 55.3906 181.289 55.3906C181.826 55.3906 182.297 55.4922 182.703 55.6953C183.115 55.8984 183.458 56.1901 183.734 56.5703C184.016 56.9505 184.227 57.4036 184.367 57.9297C184.513 58.4557 184.586 59.0391 184.586 59.6797ZM182.328 59.8438V59.6797C182.328 59.3203 182.297 58.9896 182.234 58.6875C182.177 58.3802 182.083 58.112 181.953 57.8828C181.828 57.6536 181.661 57.4766 181.453 57.3516C181.25 57.2214 181.003 57.1562 180.711 57.1562C180.404 57.1562 180.141 57.2057 179.922 57.3047C179.708 57.4036 179.534 57.5469 179.398 57.7344C179.263 57.9219 179.161 58.1458 179.094 58.4062C179.026 58.6667 178.984 58.9609 178.969 59.2891V60.375C178.995 60.7604 179.068 61.1068 179.188 61.4141C179.307 61.7161 179.492 61.9557 179.742 62.1328C179.992 62.3099 180.32 62.3984 180.727 62.3984C181.023 62.3984 181.273 62.3333 181.477 62.2031C181.68 62.0677 181.844 61.8828 181.969 61.6484C182.099 61.4141 182.19 61.1432 182.242 60.8359C182.299 60.5286 182.328 60.1979 182.328 59.8438ZM188.227 60.8594L191.062 55.5469H193.312V64H191.062V58.6797L188.227 64H185.977V55.5469H188.227V60.8594ZM199.352 55.5469V64H197.094V55.5469H199.352ZM202.07 55.5469V57.2891H194.414V55.5469H202.07ZM206.562 64.1562C205.906 64.1562 205.318 64.0521 204.797 63.8438C204.276 63.6302 203.833 63.3359 203.469 62.9609C203.109 62.5859 202.833 62.151 202.641 61.6562C202.448 61.1562 202.352 60.625 202.352 60.0625V59.75C202.352 59.1094 202.443 58.5234 202.625 57.9922C202.807 57.4609 203.068 57 203.406 56.6094C203.75 56.2188 204.167 55.9193 204.656 55.7109C205.146 55.4974 205.698 55.3906 206.312 55.3906C206.911 55.3906 207.443 55.4896 207.906 55.6875C208.37 55.8854 208.758 56.1667 209.07 56.5312C209.388 56.8958 209.628 57.3333 209.789 57.8438C209.951 58.349 210.031 58.9115 210.031 59.5312V60.4688H203.312V58.9688H207.82V58.7969C207.82 58.4844 207.763 58.2057 207.648 57.9609C207.539 57.7109 207.372 57.513 207.148 57.3672C206.924 57.2214 206.638 57.1484 206.289 57.1484C205.992 57.1484 205.737 57.2135 205.523 57.3438C205.31 57.474 205.135 57.6562 205 57.8906C204.87 58.125 204.771 58.401 204.703 58.7188C204.641 59.0312 204.609 59.375 204.609 59.75V60.0625C204.609 60.401 204.656 60.7135 204.75 61C204.849 61.2865 204.987 61.5339 205.164 61.7422C205.346 61.9505 205.565 62.112 205.82 62.2266C206.081 62.3411 206.375 62.3984 206.703 62.3984C207.109 62.3984 207.487 62.3203 207.836 62.1641C208.19 62.0026 208.495 61.7604 208.75 61.4375L209.844 62.625C209.667 62.8802 209.424 63.125 209.117 63.3594C208.815 63.5938 208.451 63.7865 208.023 63.9375C207.596 64.0833 207.109 64.1562 206.562 64.1562ZM215.523 55.5469V64H213.266V55.5469H215.523ZM218.242 55.5469V57.2891H210.586V55.5469H218.242ZM218.766 59.8594V59.6953C218.766 59.0755 218.854 58.5052 219.031 57.9844C219.208 57.4583 219.466 57.0026 219.805 56.6172C220.143 56.2318 220.56 55.9323 221.055 55.7188C221.549 55.5 222.117 55.3906 222.758 55.3906C223.398 55.3906 223.969 55.5 224.469 55.7188C224.969 55.9323 225.388 56.2318 225.727 56.6172C226.07 57.0026 226.331 57.4583 226.508 57.9844C226.685 58.5052 226.773 59.0755 226.773 59.6953V59.8594C226.773 60.474 226.685 61.0443 226.508 61.5703C226.331 62.0911 226.07 62.5469 225.727 62.9375C225.388 63.3229 224.971 63.6224 224.477 63.8359C223.982 64.0495 223.414 64.1562 222.773 64.1562C222.133 64.1562 221.562 64.0495 221.062 63.8359C220.568 63.6224 220.148 63.3229 219.805 62.9375C219.466 62.5469 219.208 62.0911 219.031 61.5703C218.854 61.0443 218.766 60.474 218.766 59.8594ZM221.016 59.6953V59.8594C221.016 60.2135 221.047 60.5443 221.109 60.8516C221.172 61.1589 221.271 61.4297 221.406 61.6641C221.547 61.8932 221.729 62.0729 221.953 62.2031C222.177 62.3333 222.451 62.3984 222.773 62.3984C223.086 62.3984 223.354 62.3333 223.578 62.2031C223.802 62.0729 223.982 61.8932 224.117 61.6641C224.253 61.4297 224.352 61.1589 224.414 60.8516C224.482 60.5443 224.516 60.2135 224.516 59.8594V59.6953C224.516 59.3516 224.482 59.0286 224.414 58.7266C224.352 58.4193 224.25 58.1484 224.109 57.9141C223.974 57.6745 223.794 57.487 223.57 57.3516C223.346 57.2161 223.076 57.1484 222.758 57.1484C222.44 57.1484 222.169 57.2161 221.945 57.3516C221.727 57.487 221.547 57.6745 221.406 57.9141C221.271 58.1484 221.172 58.4193 221.109 58.7266C221.047 59.0286 221.016 59.3516 221.016 59.6953ZM233.297 61.4141L235.516 55.5469H237.352L234.055 64H232.539L229.258 55.5469H231.094L233.297 61.4141ZM230.555 55.5469V64H228.305V55.5469H230.555ZM236.094 64V55.5469H238.344V64H236.094Z" fill="#666666"/>
<g clip-path="url(#clip0_51_140)">
<path d="M40 0C34.7471 0 29.5457 1.03463 24.6927 3.04482C19.8396 5.05501 15.4301 8.00138 11.7157 11.7157C4.21427 19.2172 0 29.3913 0 40C0 50.6087 4.21427 60.7828 11.7157 68.2843C15.4301 71.9986 19.8396 74.945 24.6927 76.9552C29.5457 78.9654 34.7471 80 40 80C50.6087 80 60.7828 75.7857 68.2843 68.2843C75.7857 60.7828 80 50.6087 80 40C80 34.7471 78.9654 29.5457 76.9552 24.6927C74.945 19.8396 71.9986 15.4301 68.2843 11.7157C64.5699 8.00138 60.1604 5.05501 55.3073 3.04482C50.4543 1.03463 45.2529 0 40 0ZM40 56C29.48 56 20 49.72 16 40C21.52 26.76 36.76 20.48 50 26C56.32 28.64 61.36 33.68 64 40C60 49.72 50.52 56 40 56Z" fill="#3F2AFF"/>
<path fill-rule="evenodd" clip-rule="evenodd" d="M40.3571 30.3125C37.6931 30.3125 35.1382 31.3708 33.2545 33.2545C31.3708 35.1382 30.3125 37.6931 30.3125 40.3571C30.3125 43.0211 31.3708 45.576 33.2545 47.4598C35.1382 49.3435 37.6931 50.4018 40.3571 50.4018C43.0212 50.4018 45.576 49.3435 47.4598 47.4598C49.3435 45.576 50.4018 43.0211 50.4018 40.3571C50.4018 37.6931 49.3435 35.1382 47.4598 33.2545C45.576 31.3708 43.0212 30.3125 40.3571 30.3125ZM40.3565 44.8772C42.8529 44.8772 44.8766 42.8535 44.8766 40.3571C44.8766 37.8608 42.8529 35.837 40.3565 35.837C37.8601 35.837 35.8364 37.8608 35.8364 40.3571C35.8364 42.8535 37.8601 44.8772 40.3565 44.8772Z" fill="#212133"/>
</g>
<defs>
<clipPath id="clip0_51_140">
<rect width="80" height="80" fill="white"/>
</clipPath>
</defs>
</svg>
